<svg xmlns="http://www.w3.org/2000/svg" viewBox="0 0 1200 800"><defs><linearGradient id="bg" x1="0" y1="0" x2="1" y2="1"><stop stop-color="#c9f7ff"/><stop offset="1" stop-color="#efd4ff"/></linearGradient></defs><rect width="1200" height="800" fill="url(#bg)"/><circle cx="900" cy="130" r="80" fill="#fff7bd"/><path d="M0 700 Q300 500 600 680 T1200 650 L1200 800 L0 800Z" fill="#aee8bd"/><g transform="translate(600 400)"><path d="M0 -30 Q-180 -230 -270 -50 Q-170 30 -30 80Z" fill="#ffffff" opacity=".8" stroke="#9bdbea" stroke-width="10"/><path d="M0 -30 Q180 -230 270 -50 Q170 30 30 80Z" fill="#ffffff" opacity=".8" stroke="#9bdbea" stroke-width="10"/><circle cy="0" r="95" fill="#ffe0c4" stroke="#a567c8" stroke-width="10"/><path d="M-90 -10 Q-80 -160 0 -130 Q80 -160 90 -10 Q50 -60 0 -45 Q-50 -60 -90 -10Z" fill="#d68be8"/><path d="M-45 10 Q-20 30 0 10 M45 10 Q20 30 0 10" fill="none" stroke="#7c5b9d" stroke-width="7"/><circle cx="-35" cy="-5" r="7"/><circle cx="35" cy="-5" r="7"/><path d="M-80 95 L-110 300 M80 95 L110 300" stroke="#d68be8" stroke-width="35" stroke-linecap="round"/></g><text x="600" y="90" text-anchor="middle" font-family="sans-serif" font-size="54" font-weight="bold" fill="#7652b1">FAIRY GARDEN</text></svg>