<svg xmlns="http://www.w3.org/2000/svg" viewBox="0 0 1200 800"><defs><linearGradient id="sky" x1="0" y1="0" x2="0" y2="1"><stop stop-color="#ffd9f7"/><stop offset="1" stop-color="#d9f4ff"/></linearGradient><linearGradient id="rainbow"><stop stop-color="#ff7ac8"/><stop offset=".5" stop-color="#ffd85c"/><stop offset="1" stop-color="#7edcff"/></linearGradient></defs><rect width="1200" height="800" fill="url(#sky)"/><circle cx="100" cy="110" r="55" fill="#fff4a8"/><path d="M120 620 Q350 250 600 500 T1100 390" fill="none" stroke="url(#rainbow)" stroke-width="55" stroke-linecap="round" opacity=".9"/><ellipse cx="600" cy="700" rx="520" ry="150" fill="#b8f0c0"/><path d="M450 560 Q430 430 500 360 Q570 300 650 360 Q720 420 690 560Z" fill="#fff" stroke="#d58be9" stroke-width="10"/><path d="M690 440 Q790 390 850 455 Q800 510 705 500Z" fill="#fff" stroke="#d58be9" stroke-width="10"/><path d="M500 365 Q560 270 625 365 L575 420Z" fill="#fff" stroke="#d58be9" stroke-width="10"/><path d="M570 350 L615 245 L665 360" fill="#ffd85c" stroke="#d58be9" stroke-width="9"/><circle cx="625" cy="420" r="9"/><circle cx="675" cy="425" r="9"/><path d="M610 470 Q650 500 690 465" fill="none" stroke="#d58be9" stroke-width="8" stroke-linecap="round"/><path d="M510 545 L485 680 M650 545 L675 680" stroke="#fff" stroke-width="30" stroke-linecap="round"/><text x="600" y="90" text-anchor="middle" font-family="sans-serif" font-size="54" font-weight="bold" fill="#9b62c9">MAGICAL UNICORN</text></svg>